<svg xmlns="http://www.w3.org/2000/svg" version="1.1" xmlns:xlink="http://www.w3.org/1999/xlink" xmlns:svgjs="http://svgjs.dev/svgjs" width="1000" height="1000" viewBox="0 0 1000 1000"><rect width="1000" height="1000" fill="#edbbba"></rect><g transform="matrix(0.7,0,0,0.7,150,218.95000000000005)"><svg viewBox="0 0 448 360" data-background-color="#edbbba" preserveAspectRatio="xMidYMid meet" height="803" width="1000" xmlns="http://www.w3.org/2000/svg" xmlns:xlink="http://www.w3.org/1999/xlink"><defs></defs><g id="tight-bounds" transform="matrix(1,0,0,1,0,0)"><svg viewBox="0 0 448 360" height="360" width="448"><g><svg></svg></g><g><svg viewBox="0 0 448 360" height="360" width="448"><g><path d="M193.855 44.683c1.378 0 2.494 1.116 2.495 2.494 0 1.378-1.116 2.494-2.495 2.495h-23.846l-17.167 17.167c-0.973 0.973-2.551 0.973-3.53 0-0.973-0.973-0.973-2.551 0-3.529l13.644-13.645h-40.378c-11.518 0-19.151 2.688-23.815 8.113-4.739 5.519-6.66 14.056-6.66 25.63 0 0.069 0 0.137-0.006 0.206l0.212 36.692 14.692-14.692c0.973-0.973 2.551-0.973 3.53 0 0.973 0.973 0.973 2.551 0 3.53l-18.178 18.178c0.206 35.832 0.193 71.358-0.013 107.19 25.486 25.2 50.617 50.312 75.811 75.791h25.38c1.378 0 2.494 1.116 2.495 2.495 0 1.378-1.116 2.494-2.495 2.494h-20.448l25.942 26.241 0.006-0.006c8.188 8.188 15.577 12.859 22.824 13.413 7.146 0.543 14.442-2.956 22.586-11.093l28.555-28.555h-20.722c-1.378 0-2.494-1.116-2.495-2.494 0-1.378 1.116-2.494 2.495-2.495h25.711l16.625-16.625c0.973-0.973 2.551-0.973 3.529 0 0.973 0.973 0.973 2.551 0 3.53l-13.101 13.102h40.377c11.518 0 19.151-2.688 23.815-8.113 4.739-5.519 6.66-14.056 6.66-25.63h0.013l-0.212-36.898-16.014 16.014c-0.973 0.973-2.551 0.973-3.53 0-0.973-0.973-0.973-2.551 0-3.53l19.5-19.5c-0.206-35.832-0.193-71.358 0.013-107.19-25.486-25.2-50.617-50.312-75.811-75.791h-26.147c-1.378 0-2.494-1.116-2.495-2.495 0-1.378 1.116-2.494 2.495-2.494h21.215l-25.824-26.123c-0.044-0.037-0.081-0.075-0.124-0.112-8.188-8.188-15.577-12.859-22.824-13.413-7.146-0.543-14.442 2.956-22.586 11.093l-28.555 28.555h18.858zM122.578 44.683h45.367l32.078-32.078c9.248-9.248 17.81-13.195 26.484-12.534 8.568 0.649 16.956 5.824 25.985 14.854 0.05 0.05 0.094 0.094 0.137 0.143l29.278 29.615h43.508c13.071 0 21.919 3.268 27.594 9.871 5.6 6.517 7.864 16.101 7.864 28.867 0 0.081-0.006 0.156-0.012 0.23l-0.225 39.742 28.43 28.112 0.006-0.006c9.03 9.03 14.206 17.411 14.854 25.985 0.661 8.674-3.293 17.236-12.534 26.484l-30.768 30.768 0.237 41.843h0.012c0 12.765-2.27 22.35-7.864 28.867-5.675 6.604-14.524 9.872-27.594 9.871h-45.366l-32.078 32.078c-9.248 9.248-17.81 13.195-26.484 12.534-8.568-0.649-16.956-5.824-25.985-14.854l0.006-0.006-29.421-29.758h-43.509c-13.071 0-21.919-3.268-27.594-9.872-5.6-6.517-7.864-16.101-7.863-28.866h0.012l0.231-39.972-28.293-27.969c-0.05-0.044-0.1-0.087-0.143-0.137-9.03-9.03-14.206-17.411-14.854-25.985-0.661-8.674 3.293-17.236 12.534-26.484l30.768-30.768-0.237-41.607c-0.006-0.075-0.012-0.156-0.012-0.23 0-12.765 2.27-22.35 7.864-28.867 5.675-6.604 14.524-9.872 27.594-9.871zM87.682 179.997l-0.274-47.724-27.276 27.276c-8.138 8.138-11.636 15.44-11.094 22.587 0.549 7.246 5.226 14.642 13.413 22.823 0.037 0.037 0.081 0.081 0.113 0.125l24.837 24.551 0.281-49.644zM92.303 241.483l-0.2 35.09h0.013c0 11.58 1.921 20.117 6.66 25.63 4.664 5.432 12.297 8.113 23.815 8.113h38.576l-33.55-33.936-35.308-34.903zM325.415 49.672h-38.575l33.549 33.936 35.308 34.902 0.2-34.884c-0.006-0.069-0.006-0.137-0.007-0.205 0-11.58-1.921-20.117-6.66-25.63-4.664-5.432-12.297-8.113-23.815-8.113zM360.599 130.352l-0.281 49.645 0.274 47.724 27.276-27.276c8.138-8.138 11.636-15.44 11.094-22.587-0.549-7.252-5.226-14.642-13.413-22.824l0.006-0.006-24.956-24.669z" fill="#374151" data-fill-palette-color="tertiary"></path></g><g transform="matrix(1,0,0,1,112.00000000000001,146.8780487804878)"><svg viewBox="0 0 223.99999999999997 66.24390243902438" height="66.24390243902438" width="223.99999999999997"><g><svg viewBox="0 0 223.99999999999997 66.24390243902438" height="66.24390243902438" width="223.99999999999997"><g><svg viewBox="0 0 224.00000000000003 66.2439024390244" height="66.24390243902438" width="223.99999999999997"><g><svg viewBox="0 0 224.00000000000003 66.2439024390244" height="66.2439024390244" width="224.00000000000003"><g><svg viewBox="0 0 224.00000000000003 66.2439024390244" height="66.2439024390244" width="224.00000000000003"><g><svg viewBox="0 0 224.00000000000003 66.2439024390244" height="66.2439024390244" width="224.00000000000003"><g transform="matrix(1,0,0,1,0,0)"><svg width="224.00000000000003" viewBox="0.75 -23.799999237060547 81.98999786376953 24.25" height="66.2439024390244" data-palette-color="#374151"><path d="M22.45-22.25Q21.65-21.1 21.33-19.9 21-18.7 21-16.8L21-16.8 21-2.85Q21-1.8 21.45-1.1L21.45-1.1 21.9-0.5 21.45 0 16.25 0 5.15-19.15 5.15-6.55Q5.15-4.55 5.48-3.38 5.8-2.2 6.6-1.1L6.6-1.1 7.05-0.5 6.6 0 1.1 0 0.75-0.9Q2.05-1.25 2.58-1.55 3.1-1.85 3.3-2.4 3.5-2.95 3.5-4.15L3.5-4.15 3.5-17.35Q3.5-19.55 3.1-20.55 2.7-21.55 1.35-22.7L1.35-22.7 1.75-23.35 8.25-23.35 19.4-4.05 19.4-19.2Q19.4-20.7 18.78-21.3 18.15-21.9 16.2-22.45L16.2-22.45 16.5-23.35 22.45-23.35 22.9-22.8 22.45-22.25ZM36.85 0.45Q31.65 0.45 28.6-2.8 25.55-6.05 25.55-11.65L25.55-11.65Q25.55-17.25 28.6-20.53 31.65-23.8 36.85-23.8L36.85-23.8Q42.05-23.8 45.12-20.53 48.2-17.25 48.2-11.65L48.2-11.65Q48.2-6.1 45.12-2.83 42.05 0.45 36.85 0.45L36.85 0.45ZM36.7-0.7Q38.55-0.7 39.97-2.08 41.4-3.45 42.2-5.9 43-8.35 43-11.55L43-11.55Q43-14.75 42.22-17.3 41.45-19.85 40.07-21.28 38.7-22.7 36.95-22.7L36.95-22.7Q35.1-22.7 33.65-21.28 32.2-19.85 31.4-17.28 30.6-14.7 30.6-11.4L30.6-11.4Q30.6-6.55 32.25-3.63 33.9-0.7 36.7-0.7L36.7-0.7ZM71.3-23.35L71.7-22.8Q70.45-21.8 69.85-21 69.25-20.2 68.8-18.85L68.8-18.85 62.5 0 58.15 0 51.75-18.85Q51.25-20.25 50.67-21.05 50.1-21.85 48.85-22.8L48.85-22.8 49.25-23.35 58.35-23.35 58.65-22.45 57.95-22.25Q57.15-22.05 56.85-21.68 56.55-21.3 56.55-20.6L56.55-20.6Q56.55-20.1 56.9-19L56.9-19 61.9-3.95 66.9-18.9Q67.25-20 67.25-20.55L67.25-20.55Q67.25-21.15 66.92-21.53 66.6-21.9 65.85-22.1L65.85-22.1 64.95-22.45 65.3-23.35 71.3-23.35ZM73.49 0L73.14-0.9Q74.29-1.2 74.82-1.53 75.34-1.85 75.52-2.43 75.69-3 75.69-4.15L75.69-4.15 75.69-17.15Q75.69-19.55 75.32-20.53 74.94-21.5 73.49-22.7L73.49-22.7 73.94-23.35 82.39-23.35 82.74-22.55Q81.29-21.7 80.89-20.98 80.49-20.25 80.49-18.4L80.49-18.4 80.49-6.1Q80.49-3.75 80.87-2.78 81.24-1.8 82.64-0.6L82.64-0.6 82.24 0 73.49 0Z" opacity="1" transform="matrix(1,0,0,1,0,0)" fill="#374151" class="undefined-text-0" data-fill-palette-color="primary" id="text-0"></path></svg></g></svg></g></svg></g></svg></g><g></g></svg></g></svg></g></svg></g></svg></g></svg><rect width="448" height="360" fill="none" stroke="none" visibility="hidden"></rect></g></svg></g></svg>